<svg version="1.1" viewBox="0.0 0.0 490.501312335958 490.501312335958" fill="none" stroke="none" stroke-linecap="square" stroke-miterlimit="10" xmlns:xlink="http://www.w3.org/1999/xlink" xmlns="http://www.w3.org/2000/svg"><clipPath id="p.0"><path d="m0 0l490.5013 0l0 490.5013l-490.5013 0l0 -490.5013z" clip-rule="nonzero"/></clipPath><g clip-path="url(#p.0)"><path fill="#000000" fill-opacity="0.0" d="m0 0l490.5013 0l0 490.5013l-490.5013 0z" fill-rule="evenodd"/><path fill="#000000" d="m299.52094 159.18256l80.58267 -60.27559l29.259857 26.283463l-51.322845 86.55905z" fill-rule="evenodd"/><path stroke="#000000" stroke-width="8.0" stroke-linejoin="round" stroke-linecap="butt" d="m299.52094 159.18256l80.58267 -60.27559l29.259857 26.283463l-51.322845 86.55905z" fill-rule="evenodd"/><path fill="#000000" d="m201.15749 154.2336l22.047241 -110.01575l44.094498 0l22.047241 110.01575z" fill-rule="evenodd"/><path stroke="#000000" stroke-width="8.0" stroke-linejoin="round" stroke-linecap="butt" d="m201.15749 154.2336l22.047241 -110.01575l44.094498 0l22.047241 110.01575z" fill-rule="evenodd"/><path fill="#000000" d="m46.82546 286.3491l0 0c0 -109.58722 88.838 -198.4252 198.4252 -198.4252l0 0c52.625626 0 103.09587 20.905457 140.30782 58.117393c37.211945 37.211945 58.11737 87.682175 58.11737 140.30782l0 0c0 109.58719 -88.83798 198.4252 -198.42519 198.4252l0 0c-109.587204 0 -198.4252 -88.83801 -198.4252 -198.4252z" fill-rule="evenodd"/><path fill="#ffffff" d="m246.81316 273.80032l0 3.203125l-3.1875 0l0 -3.203125l3.1875 0z" fill-rule="nonzero"/><path fill="#ffffff" d="m237.92914 275.5958l7.32283 -151.18109l7.32283 151.18109z" fill-rule="evenodd"/><path stroke="#ffffff" stroke-width="8.0" stroke-linejoin="round" stroke-linecap="butt" d="m237.92914 275.5958l7.32283 -151.18109l7.32283 151.18109z" fill-rule="evenodd"/><path fill="#000000" d="m192.60393 42.619537l0 0c0 -3.2181015 2.6087952 -5.826885 5.826889 -5.826885l93.63757 0c1.5453796 0 3.0274658 0.61390305 4.1202087 1.7066536c1.0927734 1.0927544 1.706665 2.5748482 1.706665 4.1202316l0 23.306854c0 3.2181015 -2.6087952 5.826889 -5.826874 5.826889l-93.63757 0c-3.2180939 0 -5.826889 -2.6087875 -5.826889 -5.826889z" fill-rule="evenodd"/><path stroke="#000000" stroke-width="1.0" stroke-linejoin="round" stroke-linecap="butt" d="m192.60393 42.619537l0 0c0 -3.2181015 2.6087952 -5.826885 5.826889 -5.826885l93.63757 0c1.5453796 0 3.0274658 0.61390305 4.1202087 1.7066536c1.0927734 1.0927544 1.706665 2.5748482 1.706665 4.1202316l0 23.306854c0 3.2181015 -2.6087952 5.826889 -5.826874 5.826889l-93.63757 0c-3.2180939 0 -5.826889 -2.6087875 -5.826889 -5.826889z" fill-rule="evenodd"/></g></svg>