<svg version="1.1" viewBox="0.0 0.0 490.501312335958 490.501312335958" fill="none" stroke="none" stroke-linecap="square" stroke-miterlimit="10" xmlns:xlink="http://www.w3.org/1999/xlink" xmlns="http://www.w3.org/2000/svg"><clipPath id="p.0"><path d="m0 0l490.5013 0l0 490.5013l-490.5013 0l0 -490.5013z" clip-rule="nonzero"/></clipPath><g clip-path="url(#p.0)"><path fill="#000000" fill-opacity="0.0" d="m0 0l490.5013 0l0 490.5013l-490.5013 0z" fill-rule="evenodd"/><path fill="#000000" d="m46.824146 277.25067l0 0c0 -109.58722 88.838 -198.4252 198.4252 -198.4252l0 0c52.625626 0 103.09587 20.905449 140.30782 58.117393c37.211945 37.211945 58.11737 87.68216 58.11737 140.30782l0 0c0 109.58719 -88.83798 198.42517 -198.42519 198.42517l0 0c-109.587204 0 -198.4252 -88.83798 -198.4252 -198.42517z" fill-rule="evenodd"/><path fill="#ffffff" d="m246.81184 264.7019l0 3.203125l-3.1875 0l0 -3.203125l3.1875 0z" fill-rule="nonzero"/><path fill="#ffffff" d="m228.64856 276.63278l91.8833 -125.252396l-84.38724 130.38628z" fill-rule="evenodd"/><path stroke="#ffffff" stroke-width="8.0" stroke-linejoin="round" stroke-linecap="butt" d="m228.64856 276.63278l91.8833 -125.252396l-84.38724 130.38628z" fill-rule="evenodd"/><path fill="#ffffff" d="m250.91628 277.73483l-114.63846 -53.4628l118.543976 44.10846z" fill-rule="evenodd"/><path stroke="#ffffff" stroke-width="8.0" stroke-linejoin="round" stroke-linecap="butt" d="m250.91628 277.73483l-114.63846 -53.4628l118.543976 44.10846z" fill-rule="evenodd"/><path fill="#000000" d="m374.7689 51.38596l0 0c3.6384888 -3.638485 9.537628 -3.638485 13.176117 0l81.37506 81.37506c1.7472839 1.7472687 2.7288818 4.1170654 2.7288818 6.5880585c0 2.4710083 -0.9815979 4.840805 -2.7288818 6.5880585l-26.35144 26.351456c-3.6384888 3.6384735 -9.537628 3.6384735 -13.176117 0l-81.37506 -81.37507c-3.6384888 -3.6384888 -3.6384888 -9.537636 0 -13.176117z" fill-rule="evenodd"/><path fill="#000000" d="m22.929266 143.87415l0 0c-3.638485 -3.6384888 -3.638485 -9.537628 0 -13.176117l81.37506 -81.37506c1.747261 -1.747261 4.117058 -2.7288628 6.5880585 -2.7288628c2.4710007 0 4.8407974 0.9816017 6.5880585 2.7288628l26.351448 26.35144c3.6384735 3.6384888 3.6384735 9.537636 0 13.176117l-81.37507 81.37506c-3.638485 3.6384888 -9.537632 3.6384888 -13.176117 0z" fill-rule="evenodd"/></g></svg>