<svg version="1.1" viewBox="0.0 0.0 490.501312335958 490.501312335958" fill="none" stroke="none" stroke-linecap="square" stroke-miterlimit="10" xmlns:xlink="http://www.w3.org/1999/xlink" xmlns="http://www.w3.org/2000/svg"><clipPath id="p.0"><path d="m0 0l490.5013 0l0 490.5013l-490.5013 0l0 -490.5013z" clip-rule="nonzero"/></clipPath><g clip-path="url(#p.0)"><path fill="#000000" fill-opacity="0.0" d="m0 0l490.5013 0l0 490.5013l-490.5013 0z" fill-rule="evenodd"/><path fill="#000000" d="m46.824146 245.25066l0 0c0 -109.587204 88.838 -198.4252 198.4252 -198.4252l0 0c52.625626 0 103.09587 20.905453 140.30782 58.117397c37.211945 37.211945 58.11737 87.68216 58.11737 140.3078l0 0c0 109.587204 -88.83798 198.42519 -198.42519 198.42519l0 0c-109.587204 0 -198.4252 -88.83798 -198.4252 -198.42519z" fill-rule="evenodd"/><path fill="#ffffff" d="m246.81184 232.7019l0 3.203125l-3.1875 0l0 -3.203125l3.1875 0z" fill-rule="nonzero"/><path fill="#ffffff" d="m240.71391 252.97638l4.535431 -189.5748l4.535431 189.5748z" fill-rule="evenodd"/><path stroke="#ffffff" stroke-width="8.0" stroke-linejoin="round" stroke-linecap="butt" d="m240.71391 252.97638l4.535431 -189.5748l4.535431 189.5748z" fill-rule="evenodd"/><path fill="#ffffff" d="m237.85017 225.34676l129.10603 100.711075l-135.09029 -92.52211z" fill-rule="evenodd"/><path stroke="#ffffff" stroke-width="8.0" stroke-linejoin="round" stroke-linecap="butt" d="m237.85017 225.34676l129.10603 100.711075l-135.09029 -92.52211z" fill-rule="evenodd"/></g></svg>